<svg viewBox="0 0 200 200" xmlns="http://www.w3.org/2000/svg">
  <linearGradient id="gold-gradient" x1="0%" y1="0%" x2="100%" y2="100%">
    <stop offset="0%" stop-color="#D4AF37" />
    <stop offset="50%" stop-color="#FFC832" />
    <stop offset="100%" stop-color="#BF953F" />
  </linearGradient>
  <path d="M100 22.5c-42.75 0-77.5 34.75-77.5 77.5s34.75 77.5 77.5 77.5 77.5-34.75 77.5-77.5-34.75-77.5-77.5-77.5zm0 140c-34.5 0-62.5-28-62.5-62.5s28-62.5 62.5-62.5 62.5 28 62.5 62.5-28 62.5-62.5 62.5z" fill="#141414"/>
  <path d="M100 35C64.1 35 35 64.1 35 100s29.1 65 65 65 65-29.1 65-65S135.9 35 100 35zm0 115c-27.6 0-50-22.4-50-50s22.4-50 50-50 50 22.4 50 50-22.4 50-50 50z" fill="#141414"/>
  <g fill="url(#gold-gradient)">
    <path d="M100 52.5c-26.2 0-47.5 21.3-47.5 47.5 0 11.5 4.1 22 10.9 30.2L100 100l-36.6-30.2c8.2-6.8 18.7-10.9 30.2-10.9.9 0 1.9 0 2.8.1.9-.1 1.9-.1 2.8-.1 11.5 0 22 4.1 30.2 10.9L93.8 100l36.6 30.2c-8.2 6.8-18.7 10.9-30.2 10.9-.9 0-1.9 0-2.8-.1-.9.1-1.9.1-2.8.1-11.5 0-22-4.1-30.2-10.9l36.6-30.2-36.6-30.2C72 56.6 85.5 52.5 100 52.5z"/>
    <path d="M136.6 69.8L100 100l36.6 30.2c6.8-8.2 10.9-18.7 10.9-30.2 0-11.5-4.1-22-10.9-30.2z"/>
    <path d="M63.4 69.8L100 100 63.4 130.2c-6.8-8.2-10.9-18.7-10.9-30.2 0-11.5 4.1-22 10.9-30.2z"/>
    <path d="M100 147.5c11.5 0 22-4.1 30.2-10.9L100 106.2l-30.2 30.4c8.2 6.8 18.7 10.9 30.2 10.9z"/>
  </g>
</svg>